George Harrison & Friends - The Concert For Bangladesh - 1971 (2005, Remastered Deluxe 2CD Set) 
http://en.wikipedia.org/wiki/The_Concert_for_Bangladesh_(album)

Tracklist:

Disc 1
01. George Harrison & Ravi Shankar - Introduction (5:18)
02. Ravi Shankar - Bangla Dhun (16:39)
03. George Harrison and Friends - Wah-Wah (3:30)
04. George Harrison and Friends - My Sweet Lord (4:36)
05. George Harrison and Friends - Awaiting on You All (3:00)
06. Billy Preston - That's the Way God Planned It (4:20)
07. Ringo Starr - It Don't Come Easy (3:01)
08. George Harrison and Friends - Beware of Darkness (3:36)
09. George Harrison and Friends - Band Introduction (2:39)
10. George Harrison and Friends - While My Guitar Gently Weeps (4:54)
Disc 2
01. Leon Russell - Medley: Jumpin' Jack Flash / Young Blood (9:27)
02. George Harrison and Friends - Here Comes the Sun (2:59)
03. Bob Dylan - A Hard Rain's A-Gonna Fall (5:44)
04. Bob Dylan - It Takes a Lot to Laugh, It Takes a Train to Cry (3:07)
05. Bob Dylan - Blowin' in the Wind (4:07)
06. Bob Dylan - Mr. Tambourine Man (4:45)
07. Bob Dylan - Just Like a Woman (4:49)
08. George Harrison and Friends - Something (3:42)
09. George Harrison and Friends - Bangla Desh (5:02)
10. Bob Dylan - Love Minus Zero / No Limit (4:19)

EAC LOG CD1:
Exact Audio Copy V1.0 beta 3 from 29. August 2011

EAC extraction logfile from 5. May 2013, 13:56

George Harrison and Friends / The Concert for Bangladesh (Remastered Deluxe CD1)

Used drive : TSSTcorpCDDVDW TS-L633C Adapter: 0 ID: 0

Read mode : Secure
Utilize accurate stream : Yes
Defeat audio cache : Yes
Make use of C2 pointers : No

Read offset correction : 6
Overread into Lead-In and Lead-Out : No
Fill up missing offset samples with silence : Yes
Delete leading and trailing silent blocks : No
Null samples used in CRC calculations : Yes
Used interface : Native Win32 interface for Win NT & 2000

Used output format : Internal WAV Routines
Sample format : 44.100 Hz; 16 Bit; Stereo


TOC of the extracted CD

 Track | Start | Length | Start sector | End sector 
 ---------------------------------------------------------
 1 | 0:00.00 | 5:18.26 | 0 | 23875 
 2 | 5:18.26 | 16:39.35 | 23876 | 98835 
 3 | 21:57.61 | 3:30.04 | 98836 | 114589 
 4 | 25:27.65 | 4:35.55 | 114590 | 135269 
 5 | 30:03.45 | 3:00.22 | 135270 | 148791 
 6 | 33:03.67 | 4:20.12 | 148792 | 168303 
 7 | 37:24.04 | 3:00.43 | 168304 | 181846 
 8 | 40:24.47 | 3:35.65 | 181847 | 198036 
 9 | 44:00.37 | 2:38.59 | 198037 | 209945 
 10 | 46:39.21 | 4:53.42 | 209946 | 231962 


Range status and errors

Selected range

 Filename C:George Harrison and Friends - The Concert For Bangladesh (Remastered Deluxe 2CD set)George Harrison and Friends - The Concert for Bangladesh (Remastered Deluxe CD1).wav

 Peak level 100.0 %
 Extraction speed 1.9 X
 Range quality 100.0 %
 Test CRC 10C83E19
 Copy CRC 10C83E19
 Copy OK

No errors occurred


End of status report

---- CUETools DB Plugin V2.1.4

[CTDB TOCID: HFcsbSUdLEZQqbcqGZK0VFAjY8Y-] found
Submit result: already submitted
Track | CTDB Status
 1 | (30/30) Accurately ripped
 2 | (30/30) Accurately ripped
 3 | (30/30) Accurately ripped
 4 | (30/30) Accurately ripped
 5 | (30/30) Accurately ripped
 6 | (30/30) Accurately ripped
 7 | (30/30) Accurately ripped
 8 | (30/30) Accurately ripped
 9 | (30/30) Accurately ripped
 10 | (30/30) Accurately ripped


==== Log checksum CA747F95E4BC15F53160681ECA4111684B4151EB4C44BA042C94F0182519795F ====

EAC LOG CD2:
Exact Audio Copy V1.0 beta 3 from 29. August 2011

EAC extraction logfile from 5. May 2013, 15:10

George Harrison and Friends / The Concert for Bangladesh (Remastered Deluxe CD2)

Used drive : TSSTcorpCDDVDW TS-L633C Adapter: 0 ID: 0

Read mode : Secure
Utilize accurate stream : Yes
Defeat audio cache : Yes
Make use of C2 pointers : No

Read offset correction : 6
Overread into Lead-In and Lead-Out : No
Fill up missing offset samples with silence : Yes
Delete leading and trailing silent blocks : No
Null samples used in CRC calculations : Yes
Used interface : Native Win32 interface for Win NT & 2000

Used output format : Internal WAV Routines
Sample format : 44.100 Hz; 16 Bit; Stereo


TOC of the extracted CD

 Track | Start | Length | Start sector | End sector 
 ---------------------------------------------------------
 1 | 0:00.00 | 9:26.49 | 0 | 42498 
 2 | 9:26.49 | 2:58.56 | 42499 | 55904 
 3 | 12:25.30 | 5:44.04 | 55905 | 81708 
 4 | 18:09.34 | 3:07.10 | 81709 | 95743 
 5 | 21:16.44 | 4:06.62 | 95744 | 114255 
 6 | 25:23.31 | 4:44.56 | 114256 | 135611 
 7 | 30:08.12 | 4:48.52 | 135612 | 157263 
 8 | 34:56.64 | 3:42.13 | 157264 | 173926 
 9 | 38:39.02 | 5:01.48 | 173927 | 196549 
 10 | 43:40.50 | 4:19.34 | 196550 | 216008 


Range status and errors

Selected range

 Filename C:George Harrison and Friends - The Concert For Bangladesh (Remastered Deluxe 2CD set)George Harrison and Friends - The Concert for Bangladesh (Remastered Deluxe CD2).wav

 Peak level 100.0 %
 Extraction speed 1.9 X
 Range quality 99.9 %
 Test CRC BAF830D3
 Copy CRC BAF830D3
 Copy OK

No errors occurred


End of status report

---- CUETools DB Plugin V2.1.4

[CTDB TOCID: pT3XSNRhjwRJMmFxwiYqqzMRgZo-] found
Submit result: already submitted
Track | CTDB Status
 1 | (29/29) Accurately ripped
 2 | (28/29) Accurately ripped
 3 | (29/29) Accurately ripped
 4 | (27/29) Accurately ripped
 5 | (29/29) Accurately ripped
 6 | (29/29) Accurately ripped
 7 | (29/29) Accurately ripped
 8 | (29/29) Accurately ripped
 9 | (29/29) Accurately ripped
 10 | (29/29) Accurately ripped


==== Log checksum 28109C0A4C0094F651347B07DE00D841CD1DB29729A7B96FD3B2E1890D433474 ====

